<svg version="1.1" id="Layer_1" xmlns="http://www.w3.org/2000/svg" xmlns:xlink="http://www.w3.org/1999/xlink" x="0px" y="0px"
	 width="100%" viewBox="0 0 462 203" enable-background="new 0 0 462 203" xml:space="preserve">
<path fill="#FCFDFE" opacity="1.000000" stroke="none" 
	d="
M345.000000,204.000000 
	C230.000015,204.000000 115.500038,204.000000 1.000046,204.000000 
	C1.000031,136.333359 1.000031,68.666733 1.000015,1.000073 
	C154.999939,1.000049 308.999878,1.000049 462.999878,1.000024 
	C462.999908,68.666595 462.999908,136.333191 462.999939,203.999893 
	C423.833344,204.000000 384.666656,204.000000 345.000000,204.000000 
M324.029449,151.014435 
	C324.029449,151.014435 323.989777,151.034302 324.529785,150.714813 
	C324.685181,150.128677 324.840576,149.542542 325.014008,149.003998 
	C325.014008,149.003998 324.964661,149.016571 325.644745,148.706696 
	C329.579193,141.712753 328.465271,132.044571 322.983215,125.606750 
	C318.039215,119.800797 309.077087,117.413559 301.170074,120.235069 
	C290.609283,123.770569 285.237396,130.526016 285.103790,140.439423 
	C284.980713,149.569107 290.039185,157.146255 298.285461,160.184509 
	C307.376099,163.533829 315.851135,161.047073 323.321320,152.755096 
	C323.554901,152.160294 323.788452,151.565491 324.029449,151.014435 
M209.518784,130.711700 
	C209.674393,130.319946 209.830002,129.928192 210.362152,128.999344 
	C217.725464,122.888214 225.449127,123.181526 231.375687,130.114670 
	C233.879501,133.043747 236.351151,132.555923 239.700226,130.661194 
	C239.092163,128.908844 238.889725,126.837090 237.805252,125.459877 
	C233.295395,119.732536 224.279465,117.476311 216.196823,120.144485 
	C204.625244,124.187965 198.944504,132.429047 200.194519,143.359161 
	C201.332306,153.308197 208.532196,160.189331 219.057877,161.387375 
	C228.043793,162.410156 237.243973,156.808578 239.092484,149.223724 
	C235.389130,148.379272 232.648560,149.292038 230.138107,152.545563 
	C228.732254,154.367538 225.659668,154.903458 222.521362,155.903320 
	C211.759979,152.990692 208.406708,149.784241 208.028824,141.849869 
	C207.887772,138.888214 207.980316,135.915466 207.997253,132.999771 
	C207.997253,132.999771 207.936874,132.996185 208.502975,132.714066 
	C208.665863,132.125854 208.828751,131.537628 209.010086,131.003708 
	C209.010086,131.003708 208.953659,131.013947 209.518784,130.711700 
M194.990356,152.990784 
	C194.990356,152.990784 194.919968,152.994293 195.561554,152.494522 
	C195.556610,149.104462 198.477371,144.908340 192.989899,142.996246 
	C192.989899,142.996246 192.968735,143.042709 192.909607,142.486069 
	C192.592239,142.334442 192.274872,142.182816 192.003265,142.010971 
	C192.003265,142.010971 191.961090,142.043289 192.026031,141.299118 
	C189.006668,139.862503 186.105530,138.042374 182.943756,137.067734 
	C176.002335,134.928009 174.961212,133.826614 175.502792,126.140228 
	C179.716080,124.170387 184.067566,123.694138 186.909134,127.906815 
	C189.093765,131.145584 191.241165,131.286713 194.893768,129.788864 
	C195.144684,128.955673 195.725510,128.065872 195.593826,127.298309 
	C194.627029,121.663162 187.036575,116.553993 176.314377,120.287949 
	C169.736526,122.877335 166.988251,126.273148 167.112366,131.658035 
	C167.232758,136.881348 170.183517,139.894943 177.304871,142.061752 
	C179.668076,142.780792 182.362808,143.011932 184.305344,144.342804 
	C186.251831,145.676392 188.707809,148.153778 188.633957,150.039490 
	C188.553558,152.091385 185.818665,154.039291 183.432251,155.985947 
	C180.800873,154.605392 177.150528,153.873764 175.765732,151.699326 
	C173.413300,148.005478 171.100876,148.633957 167.489609,150.255112 
	C166.416077,154.370117 168.921936,156.857376 171.789017,158.858414 
	C178.847046,163.784454 188.239471,162.056351 194.325287,154.778488 
	C194.531876,154.164597 194.738464,153.550690 194.990356,152.990784 
M370.021027,150.007980 
	C370.021027,150.007980 369.979309,150.024887 370.669922,149.723999 
	C371.452972,144.939453 373.034363,140.122772 372.843292,135.377441 
	C372.505554,126.987541 363.788971,119.763741 354.773346,120.102959 
	C353.444641,120.072212 352.115662,120.005173 350.787323,120.016502 
	C340.984406,120.100090 332.515869,127.137032 331.042511,136.406082 
	C329.256409,147.643005 334.368591,156.959137 344.204132,160.390945 
	C353.185883,163.524872 361.282532,160.867218 369.413635,151.860901 
	C369.611847,151.228867 369.810059,150.596832 370.021027,150.007980 
M58.347515,27.117483 
	C56.549904,28.020262 54.752296,28.923040 52.254799,29.920420 
	C50.513416,30.999842 48.772034,32.079262 46.386059,33.321220 
	C43.798504,35.584110 41.210953,37.847000 37.841053,40.574314 
	C37.365147,40.949886 36.889244,41.325459 36.651386,40.716919 
	C36.651386,37.103046 36.651386,33.489170 36.651386,29.599739 
	C30.126774,29.599739 23.905470,29.599739 17.476717,29.599739 
	C17.377766,30.846085 17.233374,31.816143 17.233494,32.786186 
	C17.237465,65.114754 17.203360,97.443535 17.331062,129.771652 
	C17.348715,134.240601 17.641047,138.840637 18.721054,143.150742 
	C23.927086,163.927155 39.855091,174.607239 57.576984,183.511902 
	C57.097618,181.927658 56.113743,180.799576 55.063744,179.736816 
	C44.461750,169.006088 39.172802,156.317535 39.574444,141.023743 
	C39.972370,125.871330 39.561092,110.697670 39.506523,95.533333 
	C39.500328,93.811043 39.505684,92.088707 39.505684,90.060577 
	C45.702110,94.115593 50.867264,98.495987 56.800220,101.177765 
	C70.731140,107.474754 85.032227,112.952187 99.177238,118.776520 
	C104.862663,121.117531 110.804146,123.008858 116.142021,125.979935 
	C123.494255,130.072189 124.743065,137.166580 118.584427,142.877258 
	C114.246277,146.899872 108.559593,150.485077 102.889328,151.873230 
	C81.485474,157.113190 65.429947,147.611237 52.269329,131.552856 
	C51.507034,130.622711 50.690147,129.737289 49.625240,128.517975 
	C48.015392,141.203598 54.680603,153.375748 67.317047,159.842682 
	C84.248878,168.507843 101.788155,169.032028 119.560463,162.212921 
	C127.769249,159.063263 133.730988,153.312195 138.473251,144.901230 
	C139.251511,156.938690 136.751846,166.209808 121.518379,181.903336 
	C125.545586,180.627716 128.561508,180.205872 131.022003,178.807022 
	C147.781555,169.278946 160.515015,156.483032 160.875854,135.876907 
	C161.485550,101.061089 161.388992,66.232880 161.562134,31.409739 
	C161.565186,30.795736 161.226089,30.180033 161.050247,29.577448 
	C153.661850,29.577448 146.460190,29.577448 139.172943,29.577448 
	C139.172943,31.979136 139.172943,33.969620 138.531586,35.710789 
	C129.751419,29.125868 120.218925,24.441414 108.229225,23.922375 
	C104.492401,23.266171 100.755577,22.609966 96.324684,21.603863 
	C92.889488,21.647306 89.454285,21.690750 85.122818,21.651880 
	C82.744423,21.882761 80.366035,22.113642 77.233269,22.265863 
	C75.486130,22.622709 73.738991,22.979555 71.267403,23.281319 
	C69.176552,23.889435 67.085693,24.497551 64.273727,25.082741 
	C62.528618,25.758881 60.783504,26.435020 58.347515,27.117483 
M274.239746,58.036430 
	C274.823547,57.621273 275.769775,57.308704 275.921875,56.771355 
	C276.346985,55.269344 276.443573,53.674347 276.936981,52.780109 
	C281.701355,62.006050 290.183350,62.921215 297.936432,54.892845 
	C298.922058,53.460529 300.468842,52.146633 300.800232,50.576256 
	C302.645844,41.831001 294.782135,34.070915 284.269287,37.995201 
	C281.788300,40.313732 279.307343,42.632263 276.332123,44.382816 
	C276.215546,42.604080 276.248444,40.793106 275.876770,39.069374 
	C275.784393,38.640934 274.383484,38.494659 272.773163,38.238052 
	C270.107513,37.427162 269.164459,38.485298 269.225159,41.173702 
	C269.341644,46.330566 269.180328,51.494072 269.320892,56.649734 
	C269.351227,57.761982 270.171387,58.852688 270.627747,59.953304 
	C271.613525,59.229004 272.599335,58.504707 274.239746,58.036430 
M234.887909,50.063782 
	C236.838257,49.491459 238.788589,48.919140 240.795670,47.534874 
	C239.895935,47.037769 238.980850,46.088673 238.099014,46.118633 
	C233.229034,46.284077 233.353897,43.821243 235.718979,40.318287 
	C237.321030,40.106388 238.923096,39.894485 240.525146,39.682583 
	C240.464722,39.255760 240.404282,38.828934 240.343857,38.402107 
	C236.576401,38.402107 232.808929,38.402107 229.122772,38.402107 
	C229.122772,45.734974 229.122772,52.663902 229.122772,60.787575 
	C233.662476,59.907673 237.703888,59.124355 241.795807,57.519402 
	C239.455765,56.764233 237.115723,56.009064 234.136887,55.047752 
	C234.136887,53.694695 234.136887,51.920086 234.887909,50.063782 
M258.376862,56.040318 
	C251.622299,55.668953 249.386261,53.144135 250.008682,46.459904 
	C250.157715,44.859406 250.561417,43.282619 251.495544,41.200130 
	C254.965439,40.117073 258.075684,40.222130 260.912323,43.056644 
	C261.577301,43.721142 263.530640,43.096352 265.568634,43.006428 
	C265.576996,42.028404 266.009094,40.669563 265.526581,40.132687 
	C261.707092,35.882679 256.952423,36.389767 251.408478,38.074574 
	C250.535538,38.547024 249.606888,38.939831 248.798874,39.505096 
	C244.206787,42.717590 242.608047,48.440109 244.814957,53.597553 
	C246.918640,58.513809 251.985245,61.055344 257.492798,59.957142 
	C262.205475,59.017433 266.459595,53.729462 266.530334,48.699005 
	C262.365784,48.699005 258.224335,48.699005 254.082901,48.699005 
	C254.062088,49.139988 254.041275,49.580971 254.020462,50.021957 
	C256.633179,50.347992 259.245880,50.674026 263.137695,51.159679 
	C261.453430,53.282227 260.339966,54.685463 258.376862,56.040318 
M379.142395,120.411812 
	C378.792023,123.259132 378.172150,126.103363 378.139465,128.954330 
	C378.018524,139.506821 378.091339,150.061554 378.091339,160.514648 
	C391.559021,162.311401 397.510529,161.449417 398.681458,157.708389 
	C398.422302,157.528320 398.169250,157.201370 397.903076,157.190308 
	C394.263275,157.038956 390.621674,156.931229 386.859375,156.010574 
	C386.572510,154.066101 386.058441,152.124039 386.037933,150.176758 
	C385.947205,141.552902 386.115082,132.924408 385.883636,124.305824 
	C385.844818,122.859840 384.299164,121.454323 383.505371,120.009834 
	C383.505371,120.009834 383.468536,120.056244 382.917389,119.590385 
	C381.892242,119.755714 380.867096,119.921043 379.142395,120.411812 
M247.998596,120.686852 
	C247.696243,121.059105 247.130936,121.430420 247.129608,121.803741 
	C247.083969,134.738449 247.091568,147.673355 247.091568,161.310974 
	C249.278229,160.832870 250.948929,160.467575 253.284286,159.751892 
	C253.570892,154.158829 253.857498,148.565750 255.060883,142.903854 
	C260.797394,142.903854 266.533936,142.903854 272.816040,142.903854 
	C272.816040,149.207916 272.816040,154.921127 272.816040,161.382141 
	C275.153870,160.839752 276.802185,160.457336 279.171509,159.787933 
	C279.437836,159.386902 279.934937,158.987076 279.937042,158.584686 
	C280.001190,146.300613 280.203979,134.012192 279.935425,121.734283 
	C279.844727,117.587494 277.122620,118.656418 273.970947,120.662773 
	C273.572021,122.150459 272.911072,123.623184 272.825073,125.128731 
	C272.600922,129.054520 272.628754,132.994705 271.688568,136.981552 
	C270.856537,136.996033 270.023285,137.047134 269.192719,137.018967 
	C264.404114,136.856613 258.236786,138.376572 255.262527,135.964813 
	C252.864685,134.020416 254.256027,127.322578 254.090179,122.729164 
	C253.929092,118.267647 251.996567,117.985176 247.998596,120.686852 
M264.543457,104.061920 
	C266.451263,107.263313 268.271393,110.626686 273.112000,108.552132 
	C273.112000,95.380096 273.112000,82.127617 273.112000,68.495316 
	C271.220856,68.629593 269.634949,68.742195 267.556702,68.889755 
	C267.556702,78.837524 267.556702,88.400490 267.556702,97.963455 
	C260.718201,89.425972 254.758331,80.662117 249.089325,71.713974 
	C246.975357,68.377205 244.666473,67.688850 241.614792,69.235489 
	C241.614792,82.654709 241.614792,95.730377 241.614792,109.111191 
	C243.579575,108.956657 245.149139,108.833214 247.061859,108.682777 
	C247.061859,98.716171 247.061859,89.144592 247.061859,79.573013 
	C247.399033,79.431549 247.736206,79.290085 248.073380,79.148613 
	C253.418930,87.255707 258.764496,95.362793 264.543457,104.061920 
M348.647919,69.925941 
	C337.209137,76.397354 333.525146,89.384201 340.093079,100.083672 
	C346.026123,109.748924 359.758575,112.427620 369.427002,105.805672 
	C377.519073,100.263374 380.311432,88.344193 375.701111,79.024887 
	C370.999817,69.521828 360.864868,65.908913 348.647919,69.925941 
M405.264648,69.957420 
	C400.412201,67.318001 395.385498,67.172272 390.365356,69.251801 
	C385.962982,71.075447 383.560303,74.492805 383.558350,79.336632 
	C383.556366,84.264198 386.076599,87.478828 390.686768,89.025757 
	C394.135529,90.182983 397.731445,90.956551 401.082733,92.336060 
	C405.734131,94.250740 406.801910,99.792885 403.360931,102.894333 
	C399.667175,106.223610 392.447601,105.517693 390.330902,101.055344 
	C388.656158,97.524788 386.524384,97.612259 383.625397,98.380318 
	C384.506531,107.215485 393.995148,112.029617 403.310272,108.414558 
	C408.111420,106.551308 410.892303,103.118927 410.977905,97.849243 
	C411.062744,92.626419 408.137543,89.523003 403.470032,87.875099 
	C400.031372,86.661049 396.321381,86.022339 393.139191,84.352058 
	C391.410461,83.444687 389.718628,81.004990 389.514709,79.095741 
	C389.336914,77.431206 390.865417,75.023361 392.355408,73.861130 
	C395.259064,71.596230 401.204834,72.463066 403.100739,75.614456 
	C405.031586,78.823967 407.254303,78.689796 411.495148,77.696205 
	C409.314911,74.838066 407.608398,72.600914 405.264648,69.957420 
M169.612381,104.820580 
	C174.115051,109.663315 179.855133,110.006073 185.759354,108.871315 
	C191.013718,107.861450 194.624832,103.334702 194.824509,98.296631 
	C195.024750,93.245041 192.643097,89.865479 187.226166,87.871147 
	C183.804092,86.611267 180.082916,85.985405 176.911072,84.295799 
	C175.203018,83.385941 173.561707,80.908691 173.384964,79.000198 
	C173.229904,77.325996 174.756195,74.924789 176.255386,73.790062 
	C179.189865,71.568954 185.092331,72.523010 186.999588,75.685158 
	C188.939789,78.901901 191.185577,78.665421 194.030869,78.018738 
	C192.444565,69.533493 183.816284,65.579666 174.860626,68.981583 
	C169.993256,70.830521 167.077744,74.809166 167.304428,79.610649 
	C167.534607,84.486221 170.128250,87.637962 174.767242,89.115471 
	C178.235565,90.220116 181.817749,91.057129 185.147827,92.483566 
	C189.525375,94.358688 190.524979,99.676399 187.359756,102.728188 
	C183.795395,106.164825 176.426956,105.647469 174.293381,101.231293 
	C172.516678,97.553780 170.409653,97.446983 167.112900,98.576935 
	C167.299591,99.519035 167.354126,100.356071 167.640289,101.104546 
	C168.052628,102.183052 168.633224,103.197212 169.612381,104.820580 
M220.721680,69.300964 
	C218.098145,68.976677 214.990891,67.253113 213.567352,71.101501 
	C208.959930,83.557236 204.471695,96.057045 199.937546,108.539879 
	C200.289902,108.967621 200.642242,109.395363 200.994598,109.823105 
	C202.853012,108.626450 205.976974,107.728867 206.343094,106.179565 
	C207.678909,100.526840 211.010788,99.232437 216.121109,99.978821 
	C217.915833,100.240959 219.816620,100.250374 221.606552,99.972717 
	C225.292786,99.400917 227.182724,100.937309 227.823639,104.477615 
	C228.554092,108.512535 230.746155,110.177475 235.089172,108.429939 
	C230.437271,95.630783 225.781403,82.820679 220.721680,69.300964 
M420.318115,68.647301 
	C419.718933,69.953033 418.652191,71.241302 418.602692,72.567566 
	C418.403900,77.888542 418.520264,83.221275 418.520203,88.549667 
	C418.520172,95.304039 418.520203,102.058411 418.520203,108.753860 
	C426.138123,108.753860 433.065094,108.753860 439.968994,108.753860 
	C441.081696,105.386459 439.875793,104.354248 436.735413,104.494423 
	C432.656250,104.676498 428.562836,104.538902 424.349915,104.538902 
	C424.349915,99.678360 424.349915,95.597015 424.349915,90.964897 
	C429.154175,90.964897 433.733490,90.964897 438.176666,90.964897 
	C439.360504,87.590431 438.832672,85.988853 435.369110,86.127983 
	C431.762604,86.272873 428.145782,86.160309 424.408569,86.160309 
	C424.408569,81.499977 424.408569,77.448051 424.408569,72.919693 
	C429.785492,72.919693 434.869141,72.919693 439.907928,72.919693 
	C440.143768,68.701111 440.145050,68.599815 437.187531,68.562401 
	C431.860291,68.494995 426.531342,68.562218 420.318115,68.647301 
M326.941040,105.251808 
	C327.565674,103.721336 328.708344,102.198639 328.731476,100.659142 
	C328.890289,90.078522 328.814911,79.494392 328.814911,68.493118 
	C326.772522,68.617752 325.193634,68.714104 323.228210,68.834045 
	C323.228210,70.995712 323.229492,72.788010 323.228027,74.580299 
	C323.221497,82.572105 323.223663,90.563942 323.202454,98.555710 
	C323.193787,101.817162 321.731384,104.094345 318.370758,104.459122 
	C315.176208,104.805855 312.936737,103.361870 312.099365,100.076988 
	C311.911407,99.339592 311.521576,98.653648 311.163300,97.797302 
	C309.349670,97.966461 307.778687,98.112999 306.145081,98.265366 
	C306.467834,103.193329 308.221008,106.947243 312.618500,108.488899 
	C317.573425,110.225975 322.465210,109.978401 326.941040,105.251808 
M196.486893,59.514267 
	C203.364059,60.812744 207.804642,59.344307 210.346695,54.774117 
	C212.828949,50.311447 212.749893,45.872650 209.668472,41.703457 
	C206.580048,37.524750 202.134109,36.901718 197.572021,38.036720 
	C192.993439,39.175827 190.252213,42.434555 189.683578,47.251015 
	C189.056595,52.561485 190.773544,56.708790 196.486893,59.514267 
M181.263107,59.151936 
	C182.985977,57.800323 184.708862,56.448715 186.431732,55.097107 
	C186.106735,54.605492 185.781738,54.113876 185.456741,53.622261 
	C184.059174,54.366131 182.596802,55.010792 181.276489,55.872959 
	C177.700485,58.208073 173.037872,57.670788 170.460129,54.530788 
	C167.797638,51.287548 168.000549,45.556473 170.883545,42.571251 
	C173.903183,39.444553 177.985794,39.389999 181.629105,42.279613 
	C182.812515,43.218224 184.247437,43.839741 185.567322,44.606289 
	C185.829803,44.157711 186.092285,43.709133 186.354782,43.260555 
	C184.543839,39.160267 181.078995,37.562672 176.626038,37.561852 
	C171.598602,37.560928 167.989212,39.924423 166.140366,44.553917 
	C164.483429,48.702831 164.969360,52.808910 167.849808,56.306221 
	C171.227722,60.407566 175.688354,60.862091 181.263107,59.151936 
M226.081406,57.911488 
	C223.861649,57.543964 221.641891,57.176441 218.868210,56.717205 
	C218.868210,51.365597 218.951355,46.079937 218.794342,40.801418 
	C218.764832,39.809177 217.776962,38.845440 217.231339,37.868542 
	C216.713181,38.716290 215.762680,39.555523 215.745789,40.413151 
	C215.619202,46.841290 215.676849,53.273064 215.676849,60.732147 
	C219.655533,59.957409 222.957993,59.314346 226.081406,57.911488 
M422.043274,65.510010 
	C428.074280,65.761002 434.737579,60.618317 433.696503,55.120182 
	C429.505341,58.552631 425.745239,61.632057 422.043274,65.510010 
z"/>
<path fill="#0907A5" opacity="1.000000" stroke="none" 
	d="
M139.172943,35.960102 
	C139.172943,33.969620 139.172943,31.979136 139.172943,29.577448 
	C146.460190,29.577448 153.661850,29.577448 161.050247,29.577448 
	C161.226089,30.180033 161.565186,30.795736 161.562134,31.409739 
	C161.388992,66.232880 161.485550,101.061089 160.875854,135.876907 
	C160.515015,156.483032 147.781555,169.278946 131.022003,178.807022 
	C128.561508,180.205872 125.545586,180.627716 121.518379,181.903336 
	C136.751846,166.209808 139.251511,156.938690 138.473251,144.901230 
	C133.730988,153.312195 127.769249,159.063263 119.560463,162.212921 
	C101.788155,169.032028 84.248878,168.507843 67.317047,159.842682 
	C54.680603,153.375748 48.015392,141.203598 49.625240,128.517975 
	C50.690147,129.737289 51.507034,130.622711 52.269329,131.552856 
	C65.429947,147.611237 81.485474,157.113190 102.889328,151.873230 
	C108.559593,150.485077 114.246277,146.899872 118.584427,142.877258 
	C124.743065,137.166580 123.494255,130.072189 116.142021,125.979935 
	C110.804146,123.008858 104.862663,121.117531 99.177238,118.776520 
	C85.032227,112.952187 70.731140,107.474754 56.800220,101.177765 
	C50.867264,98.495987 45.702110,94.115593 39.505684,90.060577 
	C39.505684,92.088707 39.500328,93.811043 39.506523,95.533333 
	C39.561092,110.697670 39.972370,125.871330 39.574444,141.023743 
	C39.172802,156.317535 44.461750,169.006088 55.063744,179.736816 
	C56.113743,180.799576 57.097618,181.927658 57.576984,183.511902 
	C39.855091,174.607239 23.927086,163.927155 18.721054,143.150742 
	C17.641047,138.840637 17.348715,134.240601 17.331062,129.771652 
	C17.203360,97.443535 17.237465,65.114754 17.233494,32.786186 
	C17.233374,31.816143 17.377766,30.846085 17.476717,29.599739 
	C23.905470,29.599739 30.126774,29.599739 36.651386,29.599739 
	C36.651386,33.489170 36.651386,37.103046 36.384514,41.459064 
	C35.712719,43.632881 35.171349,45.041542 34.925377,46.500019 
	C33.504192,54.927086 36.782413,63.748810 42.592331,67.374245 
	C44.704910,69.916740 46.545540,72.293839 48.736580,74.285439 
	C60.849911,85.296127 75.516228,91.414383 90.955727,95.970802 
	C99.880295,98.604568 108.888557,100.964638 117.765862,103.745705 
	C125.912209,106.297783 132.911957,110.586876 137.183289,118.399162 
	C137.516373,119.008362 138.140442,119.458458 139.252106,120.650208 
	C139.252106,107.870102 139.252106,96.066727 139.252106,83.692245 
	C128.661469,89.453690 117.998192,92.648590 105.242073,92.839813 
	C115.540619,85.313095 124.483299,78.777306 133.735352,72.133850 
	C147.556885,60.479733 149.687683,52.747581 139.172943,35.960102 
z"/>
<path fill="#FBC437" opacity="1.000000" stroke="none" 
	d="
M138.852264,35.835445 
	C149.687683,52.747581 147.556885,60.479733 133.724487,71.708107 
	C136.239044,56.576080 131.683853,46.504318 119.393158,41.387825 
	C115.131378,39.613689 110.495644,38.737869 106.025482,37.037746 
	C107.013145,32.422409 108.006035,28.221071 108.998932,24.019730 
	C120.218925,24.441414 129.751419,29.125868 138.852264,35.835445 
z"/>
<path fill="#1012A9" opacity="1.000000" stroke="none" 
	d="
M264.326752,103.765900 
	C258.764496,95.362793 253.418930,87.255707 248.073380,79.148613 
	C247.736206,79.290085 247.399033,79.431549 247.061859,79.573013 
	C247.061859,89.144592 247.061859,98.716171 247.061859,108.682777 
	C245.149139,108.833214 243.579575,108.956657 241.614792,109.111191 
	C241.614792,95.730377 241.614792,82.654709 241.614792,69.235489 
	C244.666473,67.688850 246.975357,68.377205 249.089325,71.713974 
	C254.758331,80.662117 260.718201,89.425972 267.556702,97.963455 
	C267.556702,88.400490 267.556702,78.837524 267.556702,68.889755 
	C269.634949,68.742195 271.220856,68.629593 273.112000,68.495316 
	C273.112000,82.127617 273.112000,95.380096 273.112000,108.552132 
	C268.271393,110.626686 266.451263,107.263313 264.326752,103.765900 
z"/>
<path fill="#FCC139" opacity="1.000000" stroke="none" 
	d="
M322.706696,153.018768 
	C315.851135,161.047073 307.376099,163.533829 298.285461,160.184509 
	C290.039185,157.146255 284.980713,149.569107 285.103790,140.439423 
	C285.237396,130.526016 290.609283,123.770569 301.963348,120.141525 
	C316.380585,119.018532 324.387390,127.486908 325.603790,136.715820 
	C326.131378,140.718460 325.221588,144.910538 324.964661,149.016571 
	C324.964661,149.016571 325.014008,149.003998 324.757935,149.158691 
	C324.331146,149.887039 324.160461,150.460663 323.989777,151.034302 
	C323.989777,151.034302 324.029449,151.014435 323.774963,151.177338 
	C323.249176,151.899750 322.977936,152.459259 322.706696,153.018768 
M294.019531,131.011688 
	C294.019531,131.011688 294.007996,130.954742 293.475739,131.276138 
	C293.294983,131.851303 293.114197,132.426468 292.997009,132.997269 
	C292.997009,132.997269 292.968384,132.940292 292.337158,133.389267 
	C291.903198,136.954285 290.779999,140.596512 291.169098,144.069305 
	C292.189148,153.173691 300.783081,158.652802 308.994507,155.970123 
	C308.994507,155.970123 308.965454,156.018356 309.650665,156.073471 
	C310.452606,155.724655 311.254517,155.375839 312.719452,154.857834 
	C319.600067,151.043777 320.802734,144.696426 320.034485,137.717361 
	C319.405670,132.004913 316.379944,127.645981 310.819397,125.795486 
	C304.907623,123.828117 299.345520,124.544647 294.471222,129.946014 
	C294.301849,130.305832 294.132477,130.665649 294.019531,131.011688 
z"/>
<path fill="#0E10A8" opacity="1.000000" stroke="none" 
	d="
M349.013550,69.783798 
	C360.864868,65.908913 370.999817,69.521828 375.701111,79.024887 
	C380.311432,88.344193 377.519073,100.263374 369.427002,105.805672 
	C359.758575,112.427620 346.026123,109.748924 340.093079,100.083672 
	C333.525146,89.384201 337.209137,76.397354 349.013550,69.783798 
M343.019531,85.054214 
	C341.861664,94.524765 345.223083,101.362656 352.250702,103.832558 
	C360.354980,106.680870 368.363037,102.951500 371.181366,95.016541 
	C374.402344,85.947945 370.402130,76.185265 362.353271,73.471329 
	C353.952179,70.638618 346.251587,74.944183 343.019531,85.054214 
z"/>
<path fill="#FCC138" opacity="1.000000" stroke="none" 
	d="
M368.867645,152.295349 
	C361.282532,160.867218 353.185883,163.524872 344.204132,160.390945 
	C334.368591,156.959137 329.256409,147.643005 331.042511,136.406082 
	C332.515869,127.137032 340.984406,120.100090 350.787323,120.016502 
	C352.115662,120.005173 353.444641,120.072212 355.452087,120.400543 
	C364.176331,122.670906 369.430542,127.809837 370.769623,135.803879 
	C371.534760,140.371918 370.308777,145.273483 369.979309,150.024887 
	C369.979309,150.024887 370.021027,150.007980 369.755981,150.198303 
	C369.283203,151.024185 369.075409,151.659775 368.867645,152.295349 
M340.548462,129.176331 
	C340.380646,129.470596 340.212860,129.764847 340.021484,130.019287 
	C340.021484,130.019287 340.067291,130.025909 339.499664,130.449356 
	C338.406982,133.504837 336.650604,136.494781 336.341370,139.627609 
	C335.246857,150.715240 344.666077,159.083939 355.070221,156.030441 
	C362.156647,154.157516 365.243805,148.972794 365.806305,142.221680 
	C366.329102,135.947449 364.522797,130.255829 358.722351,126.919830 
	C353.097961,123.685066 347.398682,123.890282 341.598480,128.183548 
	C341.394989,128.467987 341.191467,128.752441 341.026703,129.026749 
	C341.026703,129.026749 341.036987,128.988052 340.548462,129.176331 
z"/>
<path fill="#0E11A8" opacity="1.000000" stroke="none" 
	d="
M405.583252,70.160591 
	C407.608398,72.600914 409.314911,74.838066 411.495148,77.696205 
	C407.254303,78.689796 405.031586,78.823967 403.100739,75.614456 
	C401.204834,72.463066 395.259064,71.596230 392.355408,73.861130 
	C390.865417,75.023361 389.336914,77.431206 389.514709,79.095741 
	C389.718628,81.004990 391.410461,83.444687 393.139191,84.352058 
	C396.321381,86.022339 400.031372,86.661049 403.470032,87.875099 
	C408.137543,89.523003 411.062744,92.626419 410.977905,97.849243 
	C410.892303,103.118927 408.111420,106.551308 403.310272,108.414558 
	C393.995148,112.029617 384.506531,107.215485 383.625397,98.380318 
	C386.524384,97.612259 388.656158,97.524788 390.330902,101.055344 
	C392.447601,105.517693 399.667175,106.223610 403.360931,102.894333 
	C406.801910,99.792885 405.734131,94.250740 401.082733,92.336060 
	C397.731445,90.956551 394.135529,90.182983 390.686768,89.025757 
	C386.076599,87.478828 383.556366,84.264198 383.558350,79.336632 
	C383.560303,74.492805 385.962982,71.075447 390.365356,69.251801 
	C395.385498,67.172272 400.412201,67.318001 405.583252,70.160591 
z"/>
<path fill="#0F11A9" opacity="1.000000" stroke="none" 
	d="
M169.377197,104.529709 
	C168.633224,103.197212 168.052628,102.183052 167.640289,101.104546 
	C167.354126,100.356071 167.299591,99.519035 167.112900,98.576935 
	C170.409653,97.446983 172.516678,97.553780 174.293381,101.231293 
	C176.426956,105.647469 183.795395,106.164825 187.359756,102.728188 
	C190.524979,99.676399 189.525375,94.358688 185.147827,92.483566 
	C181.817749,91.057129 178.235565,90.220116 174.767242,89.115471 
	C170.128250,87.637962 167.534607,84.486221 167.304428,79.610649 
	C167.077744,74.809166 169.993256,70.830521 174.860626,68.981583 
	C183.816284,65.579666 192.444565,69.533493 194.030869,78.018738 
	C191.185577,78.665421 188.939789,78.901901 186.999588,75.685158 
	C185.092331,72.523010 179.189865,71.568954 176.255386,73.790062 
	C174.756195,74.924789 173.229904,77.325996 173.384964,79.000198 
	C173.561707,80.908691 175.203018,83.385941 176.911072,84.295799 
	C180.082916,85.985405 183.804092,86.611267 187.226166,87.871147 
	C192.643097,89.865479 195.024750,93.245041 194.824509,98.296631 
	C194.624832,103.334702 191.013718,107.861450 185.759354,108.871315 
	C179.855133,110.006073 174.115051,109.663315 169.377197,104.529709 
z"/>
<path fill="#FCC139" opacity="1.000000" stroke="none" 
	d="
M223.338089,156.018845 
	C225.659668,154.903458 228.732254,154.367538 230.138107,152.545563 
	C232.648560,149.292038 235.389130,148.379272 239.092484,149.223724 
	C237.243973,156.808578 228.043793,162.410156 219.057877,161.387375 
	C208.532196,160.189331 201.332306,153.308197 200.194519,143.359161 
	C198.944504,132.429047 204.625244,124.187965 216.999023,120.072723 
	C227.210907,119.331772 234.560867,122.615517 239.179871,131.140457 
	C236.351151,132.555923 233.879501,133.043747 231.375687,130.114670 
	C225.449127,123.181526 217.725464,122.888214 209.913864,129.450287 
	C209.294937,130.272141 209.124298,130.643051 208.953659,131.013947 
	C208.953659,131.013947 209.010086,131.003708 208.728561,131.130188 
	C208.276978,131.836517 208.106918,132.416351 207.936874,132.996185 
	C207.936874,132.996185 207.997253,132.999771 207.660599,133.190186 
	C206.892654,136.921524 205.790833,140.534271 206.160889,143.989349 
	C207.117752,152.923538 215.374359,158.447632 223.338089,156.018845 
z"/>
<path fill="#0D0FA8" opacity="1.000000" stroke="none" 
	d="
M220.923599,69.655762 
	C225.781403,82.820679 230.437271,95.630783 235.089172,108.429939 
	C230.746155,110.177475 228.554092,108.512535 227.823639,104.477615 
	C227.182724,100.937309 225.292786,99.400917 221.606552,99.972717 
	C219.816620,100.250374 217.915833,100.240959 216.121109,99.978821 
	C211.010788,99.232437 207.678909,100.526840 206.343094,106.179565 
	C205.976974,107.728867 202.853012,108.626450 200.994598,109.823105 
	C200.642242,109.395363 200.289902,108.967621 199.937546,108.539879 
	C204.471695,96.057045 208.959930,83.557236 213.567352,71.101501 
	C214.990891,67.253113 218.098145,68.976677 220.923599,69.655762 
M211.075668,93.372147 
	C211.524765,94.207100 211.938217,95.741325 212.428589,95.766304 
	C216.327606,95.964943 220.241226,95.876999 224.837143,95.876999 
	C222.367798,89.071190 220.126846,82.894875 217.483475,75.609413 
	C215.113220,82.112198 213.195740,87.372826 211.075668,93.372147 
z"/>
<path fill="#FCC13A" opacity="1.000000" stroke="none" 
	d="
M194.243118,129.897308 
	C191.241165,131.286713 189.093765,131.145584 186.909134,127.906815 
	C184.067566,123.694138 179.716080,124.170387 174.918411,126.632034 
	C171.919571,132.171921 172.772705,134.957642 177.653046,136.887833 
	C182.364990,138.751450 187.187271,140.336090 191.961090,142.043289 
	C191.961090,142.043289 192.003265,142.010971 192.006439,142.301544 
	C192.329300,142.742310 192.649017,142.892517 192.968735,143.042725 
	C192.968735,143.042709 192.989899,142.996246 192.998413,143.398117 
	C193.644608,146.864761 194.282288,149.929520 194.919968,152.994293 
	C194.919968,152.994293 194.990356,152.990784 194.667938,153.093384 
	C194.128235,153.811615 193.910965,154.427246 193.693695,155.042877 
	C188.239471,162.056351 178.847046,163.784454 171.789017,158.858414 
	C168.921936,156.857376 166.416077,154.370117 168.193909,150.125854 
	C170.518799,150.935364 172.615707,151.509140 173.668472,152.883011 
	C176.542938,156.634125 179.772659,158.132431 184.241104,156.032532 
	C185.818665,154.039291 188.553558,152.091385 188.633957,150.039490 
	C188.707809,148.153778 186.251831,145.676392 184.305344,144.342804 
	C182.362808,143.011932 179.668076,142.780792 177.304871,142.061752 
	C170.183517,139.894943 167.232758,136.881348 167.112366,131.658035 
	C166.988251,126.273148 169.736526,122.877335 177.073135,120.158844 
	C188.247559,119.944008 192.059525,122.236031 194.243118,129.897308 
z"/>
<path fill="#FDC035" opacity="1.000000" stroke="none" 
	d="
M278.450500,160.074921 
	C276.802185,160.457336 275.153870,160.839752 272.816040,161.382141 
	C272.816040,154.921127 272.816040,149.207916 272.816040,142.903854 
	C266.533936,142.903854 260.797394,142.903854 254.174438,142.952362 
	C253.065216,148.701340 252.842422,154.401810 252.619629,160.102280 
	C250.948929,160.467575 249.278229,160.832870 247.091568,161.310974 
	C247.091568,147.673355 247.083969,134.738449 247.129608,121.803741 
	C247.130936,121.430420 247.696243,121.059105 248.838516,120.664474 
	C250.520493,121.941177 251.993301,123.195770 252.088623,124.547501 
	C252.398575,128.943054 252.204605,133.374115 252.204605,138.202866 
	C257.713806,138.202866 262.500732,138.315201 267.277527,138.144485 
	C269.049255,138.081161 270.797241,137.353714 272.556061,136.929138 
	C272.628754,132.994705 272.600922,129.054520 272.825073,125.128731 
	C272.911072,123.623184 273.572021,122.150459 274.820801,120.650497 
	C276.484436,122.131737 277.966187,123.607727 278.005920,125.121567 
	C278.311676,136.768555 278.337677,148.422882 278.450500,160.074921 
z"/>
<path fill="#090CA7" opacity="1.000000" stroke="none" 
	d="
M420.760620,68.610252 
	C426.531342,68.562218 431.860291,68.494995 437.187531,68.562401 
	C440.145050,68.599815 440.143768,68.701111 439.907928,72.919693 
	C434.869141,72.919693 429.785492,72.919693 424.408569,72.919693 
	C424.408569,77.448051 424.408569,81.499977 424.408569,86.160309 
	C428.145782,86.160309 431.762604,86.272873 435.369110,86.127983 
	C438.832672,85.988853 439.360504,87.590431 438.176666,90.964897 
	C433.733490,90.964897 429.154175,90.964897 424.349915,90.964897 
	C424.349915,95.597015 424.349915,99.678360 424.349915,104.538902 
	C428.562836,104.538902 432.656250,104.676498 436.735413,104.494423 
	C439.875793,104.354248 441.081696,105.386459 439.968994,108.753860 
	C433.065094,108.753860 426.138123,108.753860 418.520203,108.753860 
	C418.520203,102.058411 418.520172,95.304039 418.520203,88.549667 
	C418.520264,83.221275 418.403900,77.888542 418.602692,72.567566 
	C418.652191,71.241302 419.718933,69.953033 420.760620,68.610252 
z"/>
<path fill="#1519AB" opacity="1.000000" stroke="none" 
	d="
M326.693054,105.542549 
	C322.465210,109.978401 317.573425,110.225975 312.618500,108.488899 
	C308.221008,106.947243 306.467834,103.193329 306.145081,98.265366 
	C307.778687,98.112999 309.349670,97.966461 311.163300,97.797302 
	C311.521576,98.653648 311.911407,99.339592 312.099365,100.076988 
	C312.936737,103.361870 315.176208,104.805855 318.370758,104.459122 
	C321.731384,104.094345 323.193787,101.817162 323.202454,98.555710 
	C323.223663,90.563942 323.221497,82.572105 323.228027,74.580299 
	C323.229492,72.788010 323.228210,70.995712 323.228210,68.834045 
	C325.193634,68.714104 326.772522,68.617752 328.814911,68.493118 
	C328.814911,79.494392 328.890289,90.078522 328.731476,100.659142 
	C328.708344,102.198639 327.565674,103.721336 326.693054,105.542549 
z"/>
<path fill="#FBC23C" opacity="1.000000" stroke="none" 
	d="
M386.980499,156.812775 
	C390.621674,156.931229 394.263275,157.038956 397.903076,157.190308 
	C398.169250,157.201370 398.422302,157.528320 398.678833,157.712189 
	C397.510529,161.449417 391.559021,162.311401 378.091339,160.514648 
	C378.091339,150.061554 378.018524,139.506821 378.139465,128.954330 
	C378.172150,126.103363 378.792023,123.259132 379.940308,120.329391 
	C381.648315,120.183403 382.558411,120.119827 383.468536,120.056244 
	C383.468536,120.056244 383.505371,120.009834 383.591187,120.477203 
	C383.751617,131.761307 383.851288,142.577988 383.880035,153.394852 
	C383.885864,155.583542 383.853607,157.565842 386.980499,156.812775 
z"/>
<path fill="#181DAD" opacity="1.000000" stroke="none" 
	d="
M196.126160,59.341087 
	C190.773544,56.708790 189.056595,52.561485 189.683578,47.251015 
	C190.252213,42.434555 192.993439,39.175827 197.572021,38.036720 
	C202.134109,36.901718 206.580048,37.524750 209.668472,41.703457 
	C212.749893,45.872650 212.828949,50.311447 210.346695,54.774117 
	C207.804642,59.344307 203.364059,60.812744 196.126160,59.341087 
M196.872375,56.687271 
	C201.279999,58.356865 205.269608,57.742687 207.592819,53.455269 
	C209.629318,49.696960 209.296677,45.625046 206.071320,42.466099 
	C203.311661,39.763252 199.929871,39.239773 196.549759,41.385143 
	C192.567673,43.912582 192.142303,47.856094 193.216705,51.922958 
	C193.641357,53.530354 195.187439,54.841484 196.872375,56.687271 
z"/>
<path fill="#FEC241" opacity="1.000000" stroke="none" 
	d="
M264.891235,43.064720 
	C263.530640,43.096352 261.577301,43.721142 260.912323,43.056644 
	C258.075684,40.222130 254.965439,40.117073 250.832336,41.579933 
	C246.564911,45.841385 245.876022,50.426178 248.349197,54.071774 
	C250.740982,57.597401 254.432404,58.281883 259.226471,56.088692 
	C260.339966,54.685463 261.453430,53.282227 263.137695,51.159679 
	C259.245880,50.674026 256.633179,50.347992 254.020462,50.021957 
	C254.041275,49.580971 254.062088,49.139988 254.082901,48.699005 
	C258.224335,48.699005 262.365784,48.699005 266.530334,48.699005 
	C266.459595,53.729462 262.205475,59.017433 257.492798,59.957142 
	C251.985245,61.055344 246.918640,58.513809 244.814957,53.597553 
	C242.608047,48.440109 244.206787,42.717590 248.798874,39.505096 
	C249.606888,38.939831 250.535538,38.547024 252.166916,37.998436 
	C257.889435,37.366650 261.940613,38.935276 264.891235,43.064720 
z"/>
<path fill="#161AAB" opacity="1.000000" stroke="none" 
	d="
M180.894897,59.317715 
	C175.688354,60.862091 171.227722,60.407566 167.849808,56.306221 
	C164.969360,52.808910 164.483429,48.702831 166.140366,44.553917 
	C167.989212,39.924423 171.598602,37.560928 176.626038,37.561852 
	C181.078995,37.562672 184.543839,39.160267 186.354782,43.260555 
	C186.092285,43.709133 185.829803,44.157711 185.567322,44.606289 
	C184.247437,43.839741 182.812515,43.218224 181.629105,42.279613 
	C177.985794,39.389999 173.903183,39.444553 170.883545,42.571251 
	C168.000549,45.556473 167.797638,51.287548 170.460129,54.530788 
	C173.037872,57.670788 177.700485,58.208073 181.276489,55.872959 
	C182.596802,55.010792 184.059174,54.366131 185.456741,53.622261 
	C185.781738,54.113876 186.106735,54.605492 186.431732,55.097107 
	C184.708862,56.448715 182.985977,57.800323 180.894897,59.317715 
z"/>
<path fill="#F45D0D" opacity="1.000000" stroke="none" 
	d="
M42.482147,67.030869 
	C36.782413,63.748810 33.504192,54.927086 34.925377,46.500019 
	C35.171349,45.041542 35.712719,43.632881 36.265488,41.951118 
	C36.889244,41.325459 37.365147,40.949886 38.375767,40.734116 
	C41.846626,45.707539 44.782772,50.521164 47.553757,55.656662 
	C45.753113,59.662647 44.117630,63.346760 42.482147,67.030869 
z"/>
<path fill="#FFBE2D" opacity="1.000000" stroke="none" 
	d="
M108.614075,23.971052 
	C108.006035,28.221071 107.013145,32.422409 105.560417,37.033821 
	C101.400162,37.285641 97.699730,37.127392 93.999542,36.528259 
	C95.006104,31.376169 96.012428,26.664965 97.018753,21.953762 
	C100.755577,22.609966 104.492401,23.266171 108.614075,23.971052 
z"/>
<path fill="#FEC241" opacity="1.000000" stroke="none" 
	d="
M276.826355,44.950794 
	C279.307343,42.632263 281.788300,40.313732 285.040344,37.944313 
	C294.899963,36.349903 301.660431,45.451622 297.230377,54.969658 
	C290.183350,62.921215 281.701355,62.006050 276.786774,52.086510 
	C276.699829,49.245541 276.763092,47.098167 276.826355,44.950794 
M282.561096,42.640602 
	C282.561096,42.640602 282.466400,42.667084 281.808716,42.820423 
	C278.721588,46.856865 278.321930,51.390079 281.104584,54.531754 
	C284.229980,58.060371 287.916321,59.043308 292.716125,55.710747 
	C296.314880,51.976620 296.395477,47.613266 293.835876,43.611988 
	C291.598206,40.113964 287.959503,39.117912 283.428680,41.294724 
	C283.169556,41.730293 282.910431,42.165863 282.561096,42.640602 
z"/>
<path fill="#F86C10" opacity="1.000000" stroke="none" 
	d="
M47.718922,55.334785 
	C44.782772,50.521164 41.846626,45.707539 38.766941,40.501900 
	C41.210953,37.847000 43.798504,35.584110 46.698814,33.639324 
	C48.688290,39.681637 50.365005,45.405846 51.906731,51.408443 
	C50.420795,52.902817 49.069859,54.118801 47.718922,55.334785 
z"/>
<path fill="#FEB72D" opacity="1.000000" stroke="none" 
	d="
M96.671722,21.778812 
	C96.012428,26.664965 95.006104,31.376169 93.609802,36.628174 
	C90.476799,37.404652 87.733772,37.640327 84.993454,37.444527 
	C85.337143,31.920101 85.678116,26.827147 86.019089,21.734194 
	C89.454285,21.690750 92.889488,21.647306 96.671722,21.778812 
z"/>
<path fill="#FEAC25" opacity="1.000000" stroke="none" 
	d="
M85.570953,21.693037 
	C85.678116,26.827147 85.337143,31.920101 84.622879,37.571709 
	C82.171143,38.473625 80.092690,38.816883 78.010338,38.682953 
	C78.000168,32.918682 77.993904,27.631601 77.987640,22.344521 
	C80.366035,22.113642 82.744423,21.882761 85.570953,21.693037 
z"/>
<path fill="#FEA01D" opacity="1.000000" stroke="none" 
	d="
M77.610458,22.305193 
	C77.993904,27.631601 78.000168,32.918682 77.704132,38.872826 
	C75.278503,40.066174 73.155174,40.592453 71.022003,40.644569 
	C71.338722,34.559074 71.665291,28.947737 71.991852,23.336399 
	C73.738991,22.979555 75.486130,22.622709 77.610458,22.305193 
z"/>
<path fill="#FFBF42" opacity="1.000000" stroke="none" 
	d="
M241.745285,58.341030 
	C237.703888,59.124355 233.662476,59.907673 229.122772,60.787575 
	C229.122772,52.663902 229.122772,45.734974 229.122772,38.402107 
	C232.808929,38.402107 236.576401,38.402107 240.343857,38.402107 
	C240.404282,38.828934 240.464722,39.255760 240.525146,39.682583 
	C238.923096,39.894485 237.321030,40.106388 234.910645,40.290253 
	C230.114410,40.619900 231.868927,43.713284 231.948669,45.572113 
	C231.982788,46.367561 234.060501,47.375259 235.362991,47.742165 
	C237.075836,48.224659 238.939896,48.170311 240.738937,48.346817 
	C238.788589,48.919140 236.838257,49.491459 234.074081,50.074844 
	C232.632614,52.426434 232.004990,54.766960 231.304321,57.379868 
	C235.596542,57.774994 238.670914,58.058010 241.745285,58.341030 
z"/>
<path fill="#FA7610" opacity="1.000000" stroke="none" 
	d="
M52.041721,51.130058 
	C50.365005,45.405846 48.688290,39.681637 47.021111,33.558056 
	C48.772034,32.079262 50.513416,30.999842 52.618179,30.304131 
	C54.379444,36.275814 55.777325,41.863781 56.978790,47.694054 
	C55.202156,49.000919 53.621941,50.065487 52.041721,51.130058 
z"/>
<path fill="#FFCD54" opacity="1.000000" stroke="none" 
	d="
M273.585144,57.780415 
	C272.599335,58.504707 271.613525,59.229004 270.627747,59.953308 
	C270.171387,58.852688 269.351227,57.761982 269.320892,56.649734 
	C269.180328,51.494072 269.341644,46.330566 269.225159,41.173702 
	C269.164459,38.485298 270.107513,37.427162 273.213074,38.676998 
	C273.630341,45.337437 273.607758,51.558926 273.585144,57.780415 
z"/>
<path fill="#FC971C" opacity="1.000000" stroke="none" 
	d="
M71.629623,23.308861 
	C71.665291,28.947737 71.338722,34.559074 70.777405,40.876331 
	C69.027733,42.049023 67.512794,42.515797 65.997223,42.549541 
	C65.662666,36.446232 65.328758,30.775951 64.994843,25.105667 
	C67.085693,24.497551 69.176552,23.889435 71.629623,23.308861 
z"/>
<path fill="#FC8113" opacity="1.000000" stroke="none" 
	d="
M57.175209,47.451752 
	C55.777325,41.863781 54.379444,36.275814 52.968124,30.256830 
	C54.752296,28.923040 56.549904,28.020262 58.860390,27.487705 
	C59.914349,33.554726 60.455429,39.251530 60.698200,45.094296 
	C59.324997,45.977425 58.250103,46.714588 57.175209,47.451752 
z"/>
<path fill="#FC8B17" opacity="1.000000" stroke="none" 
	d="
M60.996513,44.948330 
	C60.455429,39.251530 59.914349,33.554726 59.205833,27.484543 
	C60.783504,26.435020 62.528618,25.758881 64.634285,25.094204 
	C65.328758,30.775951 65.662666,36.446232 65.731750,42.769760 
	C63.976784,43.931446 62.486645,44.439888 60.996513,44.948330 
z"/>
<path fill="#1633B7" opacity="1.000000" stroke="none" 
	d="
M226.170929,58.291382 
	C222.957993,59.314346 219.655533,59.957409 215.676849,60.732147 
	C215.676849,53.273064 215.619202,46.841290 215.745789,40.413151 
	C215.762680,39.555523 216.713181,38.716290 217.231354,37.868546 
	C217.776962,38.845440 218.764832,39.809177 218.794342,40.801418 
	C218.951355,46.079937 218.868210,51.365597 218.868210,56.717205 
	C221.641891,57.176441 223.861649,57.543964 226.170929,58.291382 
z"/>
<path fill="#B1E6D0" opacity="1.000000" stroke="none" 
	d="
M278.810974,159.931427 
	C278.337677,148.422882 278.311676,136.768555 278.005920,125.121567 
	C277.966187,123.607727 276.484436,122.131737 275.232788,120.468384 
	C277.122620,118.656418 279.844727,117.587494 279.935425,121.734283 
	C280.203979,134.012192 280.001190,146.300613 279.937042,158.584686 
	C279.934937,158.987076 279.437836,159.386902 278.810974,159.931427 
z"/>
<path fill="#B1EDE6" opacity="1.000000" stroke="none" 
	d="
M325.304688,148.861633 
	C325.221588,144.910538 326.131378,140.718460 325.603790,136.715820 
	C324.387390,127.486908 316.380585,119.018532 302.295959,120.010765 
	C309.077087,117.413559 318.039215,119.800797 322.983215,125.606750 
	C328.465271,132.044571 329.579193,141.712753 325.304688,148.861633 
z"/>
<path fill="#B1F0F2" opacity="1.000000" stroke="none" 
	d="
M386.919922,156.411682 
	C383.853607,157.565842 383.885864,155.583542 383.880035,153.394852 
	C383.851288,142.577988 383.751617,131.761307 383.563354,120.487335 
	C384.299164,121.454323 385.844818,122.859840 385.883636,124.305824 
	C386.115082,132.924408 385.947205,141.552902 386.037933,150.176758 
	C386.058441,152.124039 386.572510,154.066101 386.919922,156.411682 
z"/>
<path fill="#ADE9DD" opacity="1.000000" stroke="none" 
	d="
M370.324585,149.874451 
	C370.308777,145.273483 371.534760,140.371918 370.769623,135.803879 
	C369.430542,127.809837 364.176331,122.670906 355.881714,120.417099 
	C363.788971,119.763741 372.505554,126.987541 372.843292,135.377441 
	C373.034363,140.122772 371.452972,144.939453 370.324585,149.874451 
z"/>
<path fill="#B3E6CF" opacity="1.000000" stroke="none" 
	d="
M272.122314,136.955353 
	C270.797241,137.353714 269.049255,138.081161 267.277527,138.144485 
	C262.500732,138.315201 257.713806,138.202866 252.204605,138.202866 
	C252.204605,133.374115 252.398575,128.943054 252.088623,124.547501 
	C251.993301,123.195770 250.520493,121.941177 249.238647,120.470779 
	C251.996567,117.985176 253.929092,118.267647 254.090179,122.729164 
	C254.256027,127.322578 252.864685,134.020416 255.262527,135.964813 
	C258.236786,138.376572 264.404114,136.856613 269.192719,137.018967 
	C270.023285,137.047134 270.856537,136.996033 272.122314,136.955353 
z"/>
<path fill="#AFEBE1" opacity="1.000000" stroke="none" 
	d="
M222.929718,155.961090 
	C215.374359,158.447632 207.117752,152.923538 206.160889,143.989349 
	C205.790833,140.534271 206.892654,136.921524 207.645142,133.164185 
	C207.980316,135.915466 207.887772,138.888214 208.028824,141.849869 
	C208.406708,149.784241 211.759979,152.990692 222.929718,155.961090 
z"/>
<path fill="#1216AA" opacity="1.000000" stroke="none" 
	d="
M422.014221,65.110748 
	C425.745239,61.632057 429.505341,58.552631 433.696503,55.120182 
	C434.737579,60.618317 428.074280,65.761002 422.014221,65.110748 
z"/>
<path fill="#C0EBEE" opacity="1.000000" stroke="none" 
	d="
M297.583405,54.931252 
	C301.660431,45.451622 294.899963,36.349903 285.380188,37.839767 
	C294.782135,34.070915 302.645844,41.831001 300.800232,50.576256 
	C300.468842,52.146633 298.922058,53.460529 297.583405,54.931252 
z"/>
<path fill="#C8E8E9" opacity="1.000000" stroke="none" 
	d="
M258.801666,56.064507 
	C254.432404,58.281883 250.740982,57.597401 248.349197,54.071774 
	C245.876022,50.426178 246.564911,45.841385 250.508545,41.827332 
	C250.561417,43.282619 250.157715,44.859406 250.008682,46.459904 
	C249.386261,53.144135 251.622299,55.668953 258.801666,56.064507 
z"/>
<path fill="#ABEAE1" opacity="1.000000" stroke="none" 
	d="
M191.993561,141.671204 
	C187.187271,140.336090 182.364990,138.751450 177.653046,136.887833 
	C172.772705,134.957642 171.919571,132.171921 174.662384,126.901138 
	C174.961212,133.826614 176.002335,134.928009 182.943756,137.067734 
	C186.105530,138.042374 189.006668,139.862503 191.993561,141.671204 
z"/>
<path fill="#EBFAF7" opacity="1.000000" stroke="none" 
	d="
M273.912476,57.908424 
	C273.607758,51.558926 273.630341,45.337437 273.618469,38.667320 
	C274.383484,38.494659 275.784393,38.640934 275.876770,39.069374 
	C276.248444,40.793106 276.215546,42.604080 276.579224,44.666805 
	C276.763092,47.098167 276.699829,49.245541 276.653168,51.754478 
	C276.443573,53.674347 276.346985,55.269344 275.921875,56.771355 
	C275.769775,57.308704 274.823547,57.621273 273.912476,57.908424 
z"/>
<path fill="#A6ECE8" opacity="1.000000" stroke="none" 
	d="
M239.440048,130.900818 
	C234.560867,122.615517 227.210907,119.331772 217.341660,119.956566 
	C224.279465,117.476311 233.295395,119.732536 237.805252,125.459877 
	C238.889725,126.837090 239.092163,128.908844 239.440048,130.900818 
z"/>
<path fill="#AAEDE8" opacity="1.000000" stroke="none" 
	d="
M194.568451,129.843079 
	C192.059525,122.236031 188.247559,119.944008 177.384781,119.997429 
	C187.036575,116.553993 194.627029,121.663162 195.593826,127.298309 
	C195.725510,128.065872 195.144684,128.955673 194.568451,129.843079 
z"/>
<path fill="#B4E2C1" opacity="1.000000" stroke="none" 
	d="
M252.951965,159.927094 
	C252.842422,154.401810 253.065216,148.701340 253.716049,142.986786 
	C253.857498,148.565750 253.570892,154.158829 252.951965,159.927094 
z"/>
<path fill="#CAE8E1" opacity="1.000000" stroke="none" 
	d="
M241.770538,57.930214 
	C238.670914,58.058010 235.596542,57.774994 231.304321,57.379868 
	C232.004990,54.766960 232.632614,52.426434 233.698578,50.115692 
	C234.136887,51.920086 234.136887,53.694695 234.136887,55.047752 
	C237.115723,56.009064 239.455765,56.764233 241.770538,57.930214 
z"/>
<path fill="#CCE7DE" opacity="1.000000" stroke="none" 
	d="
M240.767303,47.940842 
	C238.939896,48.170311 237.075836,48.224659 235.362991,47.742165 
	C234.060501,47.375259 231.982788,46.367561 231.948669,45.572113 
	C231.868927,43.713284 230.114410,40.619900 234.495544,40.363266 
	C233.353897,43.821243 233.229034,46.284077 238.099014,46.118633 
	C238.980850,46.088673 239.895935,47.037769 240.767303,47.940842 
z"/>
<path fill="#A9ECE5" opacity="1.000000" stroke="none" 
	d="
M183.836670,156.009247 
	C179.772659,158.132431 176.542938,156.634125 173.668472,152.883011 
	C172.615707,151.509140 170.518799,150.935364 168.512329,149.937698 
	C171.100876,148.633957 173.413300,148.005478 175.765732,151.699326 
	C177.150528,153.873764 180.800873,154.605392 183.836670,156.009247 
z"/>
<path fill="#BDE9E8" opacity="1.000000" stroke="none" 
	d="
M265.229919,43.035576 
	C261.940613,38.935276 257.889435,37.366650 252.506470,37.880295 
	C256.952423,36.389767 261.707092,35.882679 265.526581,40.132687 
	C266.009094,40.669563 265.576996,42.028404 265.229919,43.035576 
z"/>
<path fill="#ABEAE1" opacity="1.000000" stroke="none" 
	d="
M195.240753,152.744415 
	C194.282288,149.929520 193.644608,146.864761 192.981567,143.419006 
	C198.477371,144.908340 195.556610,149.104462 195.240753,152.744415 
z"/>
<path fill="#B1F0F2" opacity="1.000000" stroke="none" 
	d="
M383.192963,119.823318 
	C382.558411,120.119827 381.648315,120.183403 380.290070,120.166679 
	C380.867096,119.921043 381.892242,119.755714 383.192963,119.823318 
z"/>
<path fill="#AFEBE1" opacity="1.000000" stroke="none" 
	d="
M208.219925,132.855133 
	C208.106918,132.416351 208.276978,131.836517 208.719330,131.103058 
	C208.828751,131.537628 208.665863,132.125854 208.219925,132.855133 
z"/>
<path fill="#B1EDE6" opacity="1.000000" stroke="none" 
	d="
M324.259766,150.874557 
	C324.160461,150.460663 324.331146,149.887039 324.748901,149.134888 
	C324.840576,149.542542 324.685181,150.128677 324.259766,150.874557 
z"/>
<path fill="#ADE9DD" opacity="1.000000" stroke="none" 
	d="
M369.140625,152.078125 
	C369.075409,151.659775 369.283203,151.024185 369.749634,150.176697 
	C369.810059,150.596832 369.611847,151.228867 369.140625,152.078125 
z"/>
<path fill="#B1EDE6" opacity="1.000000" stroke="none" 
	d="
M323.014008,152.886932 
	C322.977936,152.459259 323.249176,151.899750 323.771240,151.155472 
	C323.788452,151.565491 323.554901,152.160294 323.014008,152.886932 
z"/>
<path fill="#ABEAE1" opacity="1.000000" stroke="none" 
	d="
M194.009491,154.910675 
	C193.910965,154.427246 194.128235,153.811615 194.645279,153.066376 
	C194.738464,153.550690 194.531876,154.164597 194.009491,154.910675 
z"/>
<path fill="#ABEAE1" opacity="1.000000" stroke="none" 
	d="
M192.939178,142.764404 
	C192.649017,142.892517 192.329300,142.742310 191.983551,142.311646 
	C192.274872,142.182816 192.592239,142.334442 192.939178,142.764404 
z"/>
<path fill="#AFEBE1" opacity="1.000000" stroke="none" 
	d="
M209.236221,130.862823 
	C209.124298,130.643051 209.294937,130.272141 209.725586,129.718842 
	C209.830002,129.928192 209.674393,130.319946 209.236221,130.862823 
z"/>
<path fill="#FCFCFD" opacity="1.000000" stroke="none" 
	d="
M60.698196,45.094296 
	C62.486645,44.439888 63.976784,43.931446 65.732391,43.202789 
	C67.512794,42.515797 69.027733,42.049023 70.787262,41.350494 
	C73.155174,40.592453 75.278503,40.066174 77.708038,39.350014 
	C80.092690,38.816883 82.171143,38.473625 84.620163,38.003181 
	C87.733772,37.640327 90.476799,37.404652 93.609573,37.069061 
	C97.699730,37.127392 101.400162,37.285641 105.565643,37.447815 
	C110.495644,38.737869 115.131378,39.613689 119.393158,41.387825 
	C131.683853,46.504318 136.239044,56.576080 133.415115,71.815773 
	C124.483299,78.777306 115.540619,85.313095 105.242073,92.839813 
	C117.998192,92.648590 128.661469,89.453690 139.252106,83.692245 
	C139.252106,96.066727 139.252106,107.870102 139.252106,120.650208 
	C138.140442,119.458458 137.516373,119.008362 137.183289,118.399162 
	C132.911957,110.586876 125.912209,106.297783 117.765862,103.745705 
	C108.888557,100.964638 99.880295,98.604568 90.955727,95.970802 
	C75.516228,91.414383 60.849911,85.296127 48.736580,74.285439 
	C46.545540,72.293839 44.704910,69.916740 42.592331,67.374245 
	C44.117630,63.346760 45.753113,59.662647 47.553757,55.656662 
	C49.069859,54.118801 50.420795,52.902817 51.906731,51.408447 
	C53.621941,50.065487 55.202156,49.000919 56.978790,47.694054 
	C58.250103,46.714588 59.324997,45.977425 60.698196,45.094296 
z"/>
<path fill="#FDFEFD" opacity="1.000000" stroke="none" 
	d="
M294.969238,129.590591 
	C299.345520,124.544647 304.907623,123.828117 310.819397,125.795486 
	C316.379944,127.645981 319.405670,132.004913 320.034485,137.717361 
	C320.802734,144.696426 319.600067,151.043777 312.041199,154.935516 
	C310.563782,155.348267 309.764618,155.683319 308.965454,156.018356 
	C308.965454,156.018356 308.994507,155.970123 308.625275,155.944656 
	C295.494568,153.311630 292.713501,149.843033 292.971222,136.877319 
	C292.997314,135.565521 292.970612,134.252655 292.968384,132.940292 
	C292.968384,132.940292 292.997009,132.997269 293.240845,132.850128 
	C293.659119,132.120224 293.833557,131.537491 294.007996,130.954742 
	C294.007996,130.954742 294.019531,131.011688 294.261108,130.866562 
	C294.658234,130.344482 294.813721,129.967545 294.969238,129.590591 
z"/>
<path fill="#B0EADE" opacity="1.000000" stroke="none" 
	d="
M292.652771,133.164780 
	C292.970612,134.252655 292.997314,135.565521 292.971222,136.877319 
	C292.713501,149.843033 295.494568,153.311630 308.650940,155.956177 
	C300.783081,158.652802 292.189148,153.173691 291.169098,144.069305 
	C290.779999,140.596512 291.903198,136.954285 292.652771,133.164780 
z"/>
<path fill="#B0EADE" opacity="1.000000" stroke="none" 
	d="
M309.308044,156.045914 
	C309.764618,155.683319 310.563782,155.348267 311.709717,155.020111 
	C311.254517,155.375839 310.452606,155.724655 309.308044,156.045914 
z"/>
<path fill="#B0EADE" opacity="1.000000" stroke="none" 
	d="
M293.741882,131.115448 
	C293.833557,131.537491 293.659119,132.120224 293.209045,132.852295 
	C293.114197,132.426468 293.294983,131.851303 293.741882,131.115448 
z"/>
<path fill="#B0EADE" opacity="1.000000" stroke="none" 
	d="
M294.720215,129.768311 
	C294.813721,129.967545 294.658234,130.344482 294.232910,130.873459 
	C294.132477,130.665649 294.301849,130.305832 294.720215,129.768311 
z"/>
<path fill="#F4FAFD" opacity="1.000000" stroke="none" 
	d="
M343.083008,84.632217 
	C346.251587,74.944183 353.952179,70.638618 362.353271,73.471329 
	C370.402130,76.185265 374.402344,85.947945 371.181366,95.016541 
	C368.363037,102.951500 360.354980,106.680870 352.250702,103.832558 
	C345.223083,101.362656 341.861664,94.524765 343.083008,84.632217 
z"/>
<path fill="#FDFEFD" opacity="1.000000" stroke="none" 
	d="
M342.121033,128.044312 
	C347.398682,123.890282 353.097961,123.685066 358.722351,126.919830 
	C364.522797,130.255829 366.329102,135.947449 365.806305,142.221680 
	C365.243805,148.972794 362.156647,154.157516 354.299316,155.968719 
	C342.662079,153.146317 339.059784,149.721939 338.983978,141.371643 
	C338.949707,137.593323 339.682526,133.808029 340.067291,130.025909 
	C340.067291,130.025909 340.021484,130.019287 340.271423,129.939026 
	C340.693268,129.568527 340.865112,129.278290 341.036987,128.988052 
	C341.036987,128.988052 341.026703,129.026749 341.251923,128.940628 
	C341.691772,128.584442 341.906403,128.314362 342.121033,128.044312 
z"/>
<path fill="#B2EADB" opacity="1.000000" stroke="none" 
	d="
M339.783478,130.237640 
	C339.682526,133.808029 338.949707,137.593323 338.983978,141.371643 
	C339.059784,149.721939 342.662079,153.146317 353.949493,155.969391 
	C344.666077,159.083939 335.246857,150.715240 336.341370,139.627609 
	C336.650604,136.494781 338.406982,133.504837 339.783478,130.237640 
z"/>
<path fill="#B2EADB" opacity="1.000000" stroke="none" 
	d="
M341.859741,128.113922 
	C341.906403,128.314362 341.691772,128.584442 341.232544,128.945694 
	C341.191467,128.752441 341.394989,128.467987 341.859741,128.113922 
z"/>
<path fill="#B2EADB" opacity="1.000000" stroke="none" 
	d="
M340.792725,129.082184 
	C340.865112,129.278290 340.693268,129.568527 340.283203,129.958939 
	C340.212860,129.764847 340.380646,129.470596 340.792725,129.082184 
z"/>
<path fill="#D8EEF6" opacity="1.000000" stroke="none" 
	d="
M211.176971,93.002792 
	C213.195740,87.372826 215.113220,82.112198 217.483475,75.609413 
	C220.126846,82.894875 222.367798,89.071190 224.837143,95.876999 
	C220.241226,95.876999 216.327606,95.964943 212.428589,95.766304 
	C211.938217,95.741325 211.524765,94.207100 211.176971,93.002792 
z"/>
<path fill="#EAF6F8" opacity="1.000000" stroke="none" 
	d="
M196.547638,56.487392 
	C195.187439,54.841484 193.641357,53.530354 193.216705,51.922958 
	C192.142303,47.856094 192.567673,43.912582 196.549759,41.385143 
	C199.929871,39.239773 203.311661,39.763252 206.071320,42.466099 
	C209.296677,45.625046 209.629318,49.696960 207.592819,53.455269 
	C205.269608,57.742687 201.279999,58.356865 196.547638,56.487392 
z"/>
<path fill="#FCFDF9" opacity="1.000000" stroke="none" 
	d="
M283.956940,41.186008 
	C287.959503,39.117912 291.598206,40.113964 293.835876,43.611988 
	C296.395477,47.613266 296.314880,51.976620 291.961487,55.867485 
	C284.886963,55.950176 281.469635,52.572201 282.010315,46.922516 
	C282.146210,45.502495 282.313507,44.085480 282.466400,42.667084 
	C282.466400,42.667084 282.561096,42.640602 282.896912,42.637192 
	C283.474121,42.151192 283.715515,41.668598 283.956940,41.186008 
z"/>
<path fill="#C6E9E8" opacity="1.000000" stroke="none" 
	d="
M282.137573,42.743752 
	C282.313507,44.085480 282.146210,45.502495 282.010315,46.922516 
	C281.469635,52.572201 284.886963,55.950176 291.624451,56.026684 
	C287.916321,59.043308 284.229980,58.060371 281.104584,54.531754 
	C278.321930,51.390079 278.721588,46.856865 282.137573,42.743752 
z"/>
<path fill="#C6E9E8" opacity="1.000000" stroke="none" 
	d="
M283.692810,41.240364 
	C283.715515,41.668598 283.474121,42.151192 282.942017,42.617607 
	C282.910431,42.165863 283.169556,41.730293 283.692810,41.240364 
z"/>
</svg>